<?xml version="1.0" encoding="utf-8"?>
<!-- Generator: Adobe Illustrator 25.4.1, SVG Export Plug-In . SVG Version: 6.00 Build 0)  -->
<svg version="1.1" xmlns="http://www.w3.org/2000/svg" xmlns:xlink="http://www.w3.org/1999/xlink" x="0px" y="0px"
	 viewBox="0 0 476.43 477.96" style="enable-background:new 0 0 476.43 477.96;" xml:space="preserve">
<style type="text/css">
	.st0{fill:#188DC8;}
	.st1{fill:#166DB7;}
	.st2{fill:#8EC13F;}
</style>
<g id="Layer_1">
	<g>
		<path class="st0" d="M199.59,237.4h37.04v-34.64H204.7C201.58,213.01,199.74,224.82,199.59,237.4z"/>
		<path class="st0" d="M201.47,275.2c-3.09-10.34-4.88-22.13-5.03-34.64h-30.45c0.27,12.61,3.77,24.42,9.7,34.64H201.47z"/>
		<path class="st0" d="M165.99,237.4h30.45c0.14-12.51,1.94-24.3,5.03-34.64h-25.77C169.76,212.98,166.26,224.79,165.99,237.4z"/>
		<path class="st0" d="M273.96,199.6h24.83c-10.17-15.61-26.19-27.04-44.96-31.17C262.24,174.61,269.3,185.64,273.96,199.6z"/>
		<path class="st0" d="M236.64,275.2v-34.64h-37.04c0.14,12.58,1.98,24.39,5.1,34.64H236.64z"/>
		<path class="st0" d="M271.73,202.76h-31.94v34.64h37.04C276.69,224.82,274.85,213.01,271.73,202.76z"/>
		<path class="st0" d="M244.33,167c-1.5-0.13-3.02-0.2-4.54-0.24v32.85h30.92C264.88,182.53,255.38,170.33,244.33,167z"/>
		<path class="st0" d="M205.72,199.6h30.92v-32.85c-1.53,0.03-3.04,0.11-4.54,0.24C221.04,170.33,211.55,182.53,205.72,199.6z"/>
		<path class="st0" d="M202.46,278.35h-24.83c10.17,15.61,26.19,27.04,44.96,31.17C214.19,303.34,207.12,292.32,202.46,278.35z"/>
		<path class="st0" d="M274.96,202.76c3.09,10.34,4.88,22.13,5.03,34.64h30.45c-0.27-12.61-3.77-24.42-9.7-34.64H274.96z"/>
		<path class="st0" d="M202.46,199.6c4.66-13.97,11.72-24.99,20.13-31.17c-18.77,4.14-34.8,15.57-44.96,31.17H202.46z"/>
		<path class="st0" d="M273.96,278.35c-4.66,13.97-11.72,24.99-20.13,31.17c18.77-4.14,34.8-15.57,44.96-31.17H273.96z"/>
		<path class="st0" d="M232.09,310.96c1.5,0.13,3.02,0.2,4.54,0.24v-32.85h-30.92C211.55,295.43,221.04,307.63,232.09,310.96z"/>
		<path class="st0" d="M270.71,278.35h-30.92v32.85c1.53-0.03,3.04-0.11,4.54-0.24C255.38,307.63,264.88,295.43,270.71,278.35z"/>
		<path class="st0" d="M276.83,240.56h-37.04v34.64h31.94C274.85,264.95,276.69,253.14,276.83,240.56z"/>
		<path class="st0" d="M310.43,240.56h-30.45c-0.14,12.51-1.94,24.3-5.03,34.64h25.77C306.67,264.97,310.16,253.16,310.43,240.56z"
			/>
	</g>
	<path class="st1" d="M433.58,280.13c1.25-1.13,2.29-2.19,3.17-3.2c0.1-0.09,0.2-0.17,0.3-0.27c20.54-20.54,20.54-53.84,0-74.39
		c-1.96-1.96-4.07-3.68-6.24-5.26l0.01-0.07c0,0-27.78-18.39-25.36-67.02c0.08-1.68,0.07-3.17-0.02-4.5c0-0.13,0.02-0.26,0.02-0.4
		c0-29.05-23.55-52.6-52.6-52.6c-2.77,0-5.48,0.28-8.13,0.69l-0.04-0.06c0,0-32.65,6.64-65.32-29.46c-1.13-1.25-2.19-2.29-3.2-3.17
		c-0.09-0.1-0.17-0.2-0.27-0.3c-20.54-20.54-53.85-20.54-74.39,0c-1.96,1.96-3.68,4.07-5.26,6.24l-0.07-0.01
		c0,0-18.39,27.78-67.02,25.36c-1.68-0.08-3.17-0.07-4.5,0.02c-0.13,0-0.26-0.02-0.4-0.02c-29.05,0-52.6,23.55-52.6,52.6
		c0,2.77,0.28,5.48,0.69,8.13l-0.06,0.04c0,0,6.64,32.65-29.46,65.32c-1.25,1.13-2.29,2.19-3.17,3.2c-0.1,0.09-0.2,0.17-0.3,0.27
		c-20.54,20.54-20.54,53.84,0,74.39c1.96,1.96,4.07,3.68,6.24,5.26l-0.01,0.07c0,0,27.78,18.39,25.36,67.02
		c-0.08,1.68-0.07,3.17,0.02,4.5c0,0.13-0.02,0.26-0.02,0.4c0,29.05,23.55,52.6,52.6,52.6c2.77,0,5.48-0.28,8.13-0.69l0.04,0.06
		c0,0,32.65-6.64,65.32,29.46c1.13,1.25,2.19,2.29,3.2,3.17c0.09,0.1,0.17,0.2,0.27,0.3c20.54,20.54,53.85,20.54,74.39,0
		c1.96-1.96,3.68-4.07,5.26-6.24l0.07,0.01c0,0,18.39-27.78,67.02-25.36c1.68,0.08,3.17,0.07,4.5-0.02c0.13,0,0.26,0.02,0.4,0.02
		c29.05,0,52.6-23.55,52.6-52.6c0-2.77-0.28-5.48-0.69-8.13l0.06-0.04C404.13,345.46,397.48,312.81,433.58,280.13z M400.58,269.75
		c-0.08,0.08-0.16,0.14-0.24,0.22c-0.72,0.82-1.57,1.69-2.59,2.61c-29.48,26.68-24.05,53.34-24.05,53.34l-0.05,0.03
		c0.34,2.17,0.57,4.38,0.57,6.64c0,23.72-19.23,42.95-42.95,42.95c-0.11,0-0.22-0.02-0.33-0.02c-1.09,0.07-2.31,0.08-3.68,0.02
		c-39.71-1.98-54.73,20.71-54.73,20.71l-0.06-0.01c-1.3,1.77-2.7,3.49-4.3,5.1c-16.77,16.77-43.97,16.77-60.74,0
		c-0.08-0.08-0.14-0.16-0.22-0.24c-0.82-0.72-1.69-1.57-2.61-2.59c-26.68-29.48-53.34-24.05-53.34-24.05l-0.03-0.05
		c-2.17,0.34-4.38,0.57-6.64,0.57c-23.72,0-42.95-19.23-42.95-42.95c0-0.11,0.02-0.22,0.02-0.33c-0.07-1.09-0.08-2.31-0.02-3.68
		c1.98-39.71-20.71-54.73-20.71-54.73l0.01-0.06c-1.77-1.3-3.49-2.7-5.1-4.3c-16.77-16.77-16.77-43.97,0-60.74
		c0.08-0.08,0.16-0.14,0.24-0.22c0.72-0.82,1.57-1.69,2.59-2.61c29.48-26.68,24.05-53.34,24.05-53.34l0.05-0.03
		c-0.34-2.17-0.57-4.38-0.57-6.64c0-23.72,19.23-42.95,42.95-42.95c0.11,0,0.22,0.02,0.33,0.02c1.09-0.07,2.31-0.08,3.68-0.02
		c39.71,1.98,54.73-20.71,54.73-20.71l0.06,0.01c1.3-1.77,2.7-3.49,4.3-5.1c16.77-16.77,43.97-16.77,60.74,0
		c0.08,0.08,0.14,0.16,0.22,0.24c0.82,0.72,1.69,1.57,2.61,2.59c26.68,29.48,53.34,24.05,53.34,24.05l0.03,0.05
		c2.17-0.34,4.38-0.57,6.64-0.57c23.72,0,42.95,19.23,42.95,42.95c0,0.11-0.02,0.22-0.02,0.33c0.07,1.09,0.08,2.31,0.02,3.68
		c-1.98,39.71,20.71,54.73,20.71,54.73l-0.01,0.06c1.77,1.3,3.49,2.7,5.1,4.3C417.36,225.79,417.36,252.98,400.58,269.75z"/>
	<g>
		<path class="st2" d="M237.6,159.12c-5.27-8.31-10.45-16.35-15.51-24.47c-3.63-5.81-7.23-11.65-10.63-17.6
			c-5.96-10.41-4.79-23.45,2.77-32.99c7.52-9.49,20.11-13.53,31.77-10.18c11.53,3.31,20.04,13.29,21.45,25.04
			c0.79,6.59-0.19,12.85-3.67,18.51c-8.42,13.68-17,27.27-25.51,40.89C238.15,158.49,237.99,158.64,237.6,159.12z M237.68,89.61
			c-7.18,0.03-13.14,5.94-13.18,13.05c-0.03,7.18,6.05,13.26,13.25,13.24c7.2-0.02,13.3-6.18,13.17-13.31
			C250.8,95.41,244.85,89.58,237.68,89.61z"/>
		<path class="st2" d="M294.25,182.07c2.15-9.6,4.18-18.95,6.34-28.27c1.55-6.68,3.13-13.35,4.92-19.96
			c3.15-11.57,13.19-19.96,25.29-21.37c12.03-1.4,23.79,4.66,29.66,15.27c5.81,10.49,4.77,23.57-2.54,32.88
			c-4.1,5.22-9.22,8.95-15.68,10.49c-15.63,3.72-31.3,7.26-46.95,10.87C295.08,182.02,294.86,182.02,294.25,182.07z M343.45,132.98
			c-5.09-5.06-13.49-5.1-18.55-0.09c-5.1,5.05-5.1,13.65,0.01,18.73c5.1,5.08,13.77,5.03,18.73-0.1
			C348.63,146.36,348.55,138.03,343.45,132.98z"/>
		<path class="st2" d="M181.31,182.94c-9.6-2.15-18.95-4.18-28.27-6.34c-6.68-1.55-13.35-3.13-19.96-4.92
			c-11.57-3.15-19.96-13.19-21.37-25.29c-1.4-12.03,4.66-23.79,15.27-29.66c10.49-5.81,23.57-4.77,32.88,2.54
			c5.22,4.1,8.95,9.22,10.49,15.68c3.72,15.63,7.26,31.3,10.87,46.95C181.26,182.11,181.25,182.33,181.31,182.94z M132.21,133.74
			c-5.06,5.09-5.1,13.49-0.09,18.55c5.05,5.1,13.65,5.1,18.73-0.01c5.08-5.1,5.03-13.77-0.1-18.73
			C145.6,128.56,137.27,128.65,132.21,133.74z"/>
		<path class="st2" d="M158.35,239.59c-8.31,5.27-16.35,10.45-24.47,15.51c-5.81,3.63-11.65,7.23-17.6,10.63
			c-10.41,5.96-23.45,4.79-32.99-2.77c-9.49-7.52-13.53-20.11-10.18-31.77c3.31-11.53,13.29-20.04,25.04-21.45
			c6.59-0.79,12.85,0.19,18.51,3.67c13.68,8.42,27.27,17,40.89,25.51C157.73,239.04,157.88,239.2,158.35,239.59z M88.84,239.52
			c0.03,7.18,5.94,13.14,13.05,13.18c7.18,0.03,13.26-6.05,13.24-13.25c-0.02-7.2-6.18-13.3-13.31-13.17
			C94.65,226.39,88.82,232.34,88.84,239.52z"/>
		<path class="st2" d="M182.18,295.89c-2.15,9.6-4.18,18.95-6.34,28.27c-1.55,6.68-3.13,13.35-4.92,19.96
			c-3.15,11.57-13.19,19.96-25.29,21.37c-12.03,1.4-23.79-4.66-29.66-15.27c-5.81-10.49-4.77-23.57,2.54-32.88
			c4.1-5.22,9.22-8.95,15.68-10.49c15.63-3.72,31.3-7.26,46.95-10.87C181.34,295.93,181.56,295.94,182.18,295.89z M132.97,344.98
			c5.09,5.06,13.49,5.1,18.55,0.09c5.1-5.05,5.1-13.65-0.01-18.73c-5.1-5.08-13.77-5.03-18.73,0.1
			C127.79,331.59,127.88,339.92,132.97,344.98z"/>
		<path class="st2" d="M238.83,318.84c5.27,8.3,10.45,16.35,15.51,24.47c3.63,5.81,7.23,11.65,10.63,17.6
			c5.96,10.41,4.79,23.45-2.77,32.99c-7.52,9.49-20.11,13.53-31.77,10.18c-11.53-3.31-20.04-13.29-21.45-25.04
			c-0.79-6.59,0.19-12.85,3.67-18.51c8.42-13.68,17-27.27,25.51-40.89C238.27,319.47,238.43,319.32,238.83,318.84z M238.75,388.35
			c7.18-0.03,13.14-5.94,13.18-13.05c0.03-7.18-6.05-13.26-13.25-13.24c-7.2,0.02-13.3,6.18-13.17,13.31
			C225.62,382.55,231.57,388.37,238.75,388.35z"/>
		<path class="st2" d="M318.08,238.36c8.31-5.27,16.35-10.45,24.47-15.51c5.81-3.63,11.65-7.23,17.6-10.63
			c10.41-5.96,23.45-4.79,32.99,2.77c9.49,7.52,13.53,20.11,10.18,31.77c-3.31,11.53-13.29,20.04-25.04,21.45
			c-6.59,0.79-12.85-0.19-18.51-3.67c-13.68-8.42-27.27-17-40.89-25.51C318.7,238.92,318.55,238.76,318.08,238.36z M387.58,238.44
			c-0.03-7.18-5.94-13.14-13.05-13.18c-7.18-0.03-13.26,6.05-13.24,13.25c0.02,7.2,6.18,13.3,13.31,13.17
			C381.78,251.57,387.61,245.62,387.58,238.44z"/>
		<path class="st2" d="M295.12,295.01c9.6,2.15,18.95,4.18,28.27,6.34c6.68,1.55,13.35,3.13,19.96,4.92
			c11.57,3.15,19.96,13.19,21.37,25.29c1.4,12.03-4.66,23.79-15.27,29.66c-10.49,5.81-23.57,4.77-32.88-2.54
			c-5.22-4.1-8.95-9.22-10.49-15.68c-3.72-15.63-7.26-31.3-10.87-46.95C295.17,295.85,295.17,295.63,295.12,295.01z M344.21,344.22
			c5.06-5.09,5.1-13.49,0.09-18.55c-5.05-5.1-13.65-5.1-18.73,0.01c-5.08,5.1-5.03,13.77,0.1,18.73
			C330.83,349.4,339.16,349.31,344.21,344.22z"/>
	</g>
</g>
<g id="Layer_2">
</g>
</svg>
