<svg id="Layer_1" data-name="Layer 1" xmlns="http://www.w3.org/2000/svg" viewBox="0 0 1351.49 391.12"><path d="M210.41,236.84h33.81V205.22H215.07A113.77,113.77,0,0,0,210.41,236.84Z" transform="translate(-50.1 -42.72)" style="fill:#188dc8"/><path d="M212.12,271.34a115.89,115.89,0,0,1-4.59-31.62H179.74a65.73,65.73,0,0,0,8.85,31.62Z" transform="translate(-50.1 -42.72)" style="fill:#188dc8"/><path d="M179.74,236.84h27.79a115.83,115.83,0,0,1,4.59-31.62H188.59A65.7,65.7,0,0,0,179.74,236.84Z" transform="translate(-50.1 -42.72)" style="fill:#188dc8"/><path d="M278.29,202.34H301a66,66,0,0,0-41-28.46C267.59,179.53,274,189.59,278.29,202.34Z" transform="translate(-50.1 -42.72)" style="fill:#188dc8"/><path d="M244.22,271.34V239.72H210.41a113.83,113.83,0,0,0,4.66,31.62Z" transform="translate(-50.1 -42.72)" style="fill:#188dc8"/><path d="M276.25,205.22H247.1v31.62h33.81A113.77,113.77,0,0,0,276.25,205.22Z" transform="translate(-50.1 -42.72)" style="fill:#188dc8"/><path d="M251.25,172.57c-1.37-.11-2.76-.18-4.15-.21v30h28.22C270,186.75,261.33,175.61,251.25,172.57Z" transform="translate(-50.1 -42.72)" style="fill:#188dc8"/><path d="M216,202.34h28.22v-30c-1.39,0-2.78.1-4.15.21C230,175.61,221.32,186.75,216,202.34Z" transform="translate(-50.1 -42.72)" style="fill:#188dc8"/><path d="M213,274.22H190.37a66,66,0,0,0,41,28.45C223.73,297,217.28,287,213,274.22Z" transform="translate(-50.1 -42.72)" style="fill:#188dc8"/><path d="M279.2,205.22a115.83,115.83,0,0,1,4.59,31.62h27.79a65.7,65.7,0,0,0-8.85-31.62Z" transform="translate(-50.1 -42.72)" style="fill:#188dc8"/><path d="M213,202.34c4.25-12.75,10.7-22.81,18.38-28.46a66,66,0,0,0-41,28.46Z" transform="translate(-50.1 -42.72)" style="fill:#188dc8"/><path d="M278.29,274.22C274,287,267.59,297,259.91,302.67a66,66,0,0,0,41-28.45Z" transform="translate(-50.1 -42.72)" style="fill:#188dc8"/><path d="M240.07,304c1.37.12,2.76.19,4.15.22v-30H216C221.32,289.8,230,300.94,240.07,304Z" transform="translate(-50.1 -42.72)" style="fill:#188dc8"/><path d="M275.32,274.22H247.1v30c1.39,0,2.77-.1,4.15-.22C261.33,300.94,270,289.8,275.32,274.22Z" transform="translate(-50.1 -42.72)" style="fill:#188dc8"/><path d="M280.91,239.72H247.1v31.62h29.15A113.83,113.83,0,0,0,280.91,239.72Z" transform="translate(-50.1 -42.72)" style="fill:#188dc8"/><path d="M311.58,239.72H283.79a115.89,115.89,0,0,1-4.59,31.62h23.53A65.73,65.73,0,0,0,311.58,239.72Z" transform="translate(-50.1 -42.72)" style="fill:#188dc8"/><path d="M424,275.84a34.42,34.42,0,0,0,2.9-2.92l.27-.24a48,48,0,0,0,0-67.9,47.52,47.52,0,0,0-5.7-4.8v-.07s-25.36-16.78-23.14-61.17a37.08,37.08,0,0,0,0-4.11c0-.13,0-.24,0-.37a48,48,0,0,0-48-48,49,49,0,0,0-7.42.63l0,0s-29.8,6.06-59.62-26.89a34.16,34.16,0,0,0-2.92-2.89l-.25-.27a47.7,47.7,0,0,0-72.7,5.69h-.06s-16.79,25.36-61.18,23.15a37.08,37.08,0,0,0-4.11,0l-.36,0a47.65,47.65,0,0,0-47.38,55.44l-.06,0s6.07,29.8-26.88,59.62a36,36,0,0,0-2.9,2.92l-.27.25a47.71,47.71,0,0,0,5.7,72.7v.06S95.21,293.43,93,337.82a37.08,37.08,0,0,0,0,4.11c0,.12,0,.24,0,.36a47.71,47.71,0,0,0,55.44,47.38l0,.05s29.8-6.06,59.62,26.89a36,36,0,0,0,2.92,2.9c.09.08.16.18.25.27a47.67,47.67,0,0,0,72.7-5.7H284s16.79-25.36,61.18-23.15a32.76,32.76,0,0,0,4.11,0l.36,0a47.64,47.64,0,0,0,47.38-55.43l.06,0S391,305.67,424,275.84Zm-30.12-9.47-.22.2a29.1,29.1,0,0,1-2.36,2.38c-26.91,24.36-22,48.69-22,48.69l0,0a39,39,0,0,1-38.69,45.27h-.3a28.72,28.72,0,0,1-3.36,0c-36.25-1.8-49.95,18.91-49.95,18.91h-.05a39,39,0,0,1-59.37,4.65l-.2-.22A29.35,29.35,0,0,1,215,383.9C190.63,357,166.29,362,166.29,362l0-.05A38.92,38.92,0,0,1,121,323.21c0-.1,0-.19,0-.29a28.56,28.56,0,0,1,0-3.36c1.81-36.25-18.9-49.95-18.9-49.95v-.06a38.94,38.94,0,0,1-4.65-59.36c.07-.08.15-.13.22-.2A27.61,27.61,0,0,1,100,207.6c26.91-24.35,22-48.69,22-48.69l0,0a39,39,0,0,1,38.69-45.27l.3,0a28.56,28.56,0,0,1,3.36,0c36.25,1.81,50-18.9,50-18.9h0a39,39,0,0,1,59.37-4.65l.2.22a29.11,29.11,0,0,1,2.39,2.36c24.35,26.91,48.69,22,48.69,22l0,0a38.92,38.92,0,0,1,45.27,38.69c0,.1,0,.2,0,.3a28.52,28.52,0,0,1,0,3.36c-1.81,36.24,18.9,49.95,18.9,49.95V207a38.94,38.94,0,0,1,4.65,59.37Z" transform="translate(-50.1 -42.72)" style="fill:#166db7"/><path d="M245.1,165.38c-4.81-7.58-9.54-14.93-14.16-22.34-3.31-5.31-6.6-10.63-9.71-16.06a27,27,0,0,1,2.54-30.12,27.36,27.36,0,0,1,48.58,13.57A25.51,25.51,0,0,1,269,127.32c-7.69,12.49-15.52,24.89-23.29,37.33C245.61,164.81,245.46,165,245.1,165.38Zm.07-63.45a12,12,0,1,0,12.09,11.85A12.13,12.13,0,0,0,245.17,101.93Z" transform="translate(-50.1 -42.72)" style="fill:#8ec13f"/><path d="M296.81,186.33c2-8.76,3.81-17.29,5.78-25.8,1.41-6.1,2.86-12.19,4.5-18.22a26.93,26.93,0,0,1,23.08-19.51,27.36,27.36,0,0,1,24.76,44,25.48,25.48,0,0,1-14.31,9.57c-14.27,3.4-28.57,6.63-42.86,9.93C297.57,186.29,297.37,186.28,296.81,186.33Zm44.91-44.81a12,12,0,1,0,.18,16.93A12.13,12.13,0,0,0,341.72,141.52Z" transform="translate(-50.1 -42.72)" style="fill:#8ec13f"/><path d="M193.72,187.13c-8.77-2-17.3-3.82-25.81-5.79-6.1-1.41-12.19-2.85-18.22-4.49a27,27,0,0,1-19.51-23.09A27.37,27.37,0,0,1,174.13,129a25.57,25.57,0,0,1,9.58,14.32c3.39,14.26,6.62,28.57,9.92,42.86C193.67,186.37,193.67,186.57,193.72,187.13ZM148.9,142.21a12,12,0,1,0,16.93-.17A12.13,12.13,0,0,0,148.9,142.21Z" transform="translate(-50.1 -42.72)" style="fill:#8ec13f"/><path d="M172.76,238.84c-7.58,4.81-14.93,9.53-22.34,14.16-5.3,3.31-10.63,6.6-16.06,9.7a26.93,26.93,0,0,1-30.11-2.53,27.36,27.36,0,0,1,13.56-48.58,25.48,25.48,0,0,1,16.9,3.35c12.48,7.69,24.88,15.51,37.32,23.29C172.19,238.33,172.33,238.48,172.76,238.84Zm-63.44-.07a12,12,0,1,0,11.84-12.1A12.12,12.12,0,0,0,109.32,238.77Z" transform="translate(-50.1 -42.72)" style="fill:#8ec13f"/><path d="M194.51,290.22c-2,8.76-3.81,17.3-5.78,25.81-1.41,6.09-2.86,12.18-4.5,18.22a26.93,26.93,0,0,1-23.08,19.5,27.36,27.36,0,0,1-24.76-43.94,25.45,25.45,0,0,1,14.31-9.58c14.27-3.39,28.57-6.63,42.86-9.92A8,8,0,0,1,194.51,290.22ZM149.6,335a12,12,0,1,0-.18-16.92A12.11,12.11,0,0,0,149.6,335Z" transform="translate(-50.1 -42.72)" style="fill:#8ec13f"/><path d="M246.22,311.18c4.81,7.58,9.54,14.92,14.16,22.33,3.31,5.31,6.6,10.64,9.71,16.07a26.94,26.94,0,0,1-2.54,30.11A27.36,27.36,0,0,1,219,366.12a25.51,25.51,0,0,1,3.35-16.89c7.69-12.48,15.52-24.89,23.29-37.32C245.71,311.75,245.86,311.61,246.22,311.18Zm-.07,63.44a12,12,0,1,0-12.09-11.84A12.12,12.12,0,0,0,246.15,374.62Z" transform="translate(-50.1 -42.72)" style="fill:#8ec13f"/><path d="M318.56,237.72c7.58-4.82,14.93-9.54,22.34-14.16,5.3-3.32,10.63-6.6,16.06-9.71a26.93,26.93,0,0,1,30.11,2.53A27.36,27.36,0,0,1,373.51,265a25.6,25.6,0,0,1-16.9-3.35c-12.48-7.69-24.88-15.52-37.32-23.29C319.13,238.22,319,238.08,318.56,237.72Zm63.44.07a12,12,0,1,0-11.84,12.09A12.12,12.12,0,0,0,382,237.79Z" transform="translate(-50.1 -42.72)" style="fill:#8ec13f"/><path d="M297.6,289.43c8.77,1.95,17.3,3.81,25.81,5.78,6.09,1.41,12.19,2.85,18.22,4.5a27,27,0,0,1,19.51,23.08,27.36,27.36,0,0,1-43.95,24.76,25.58,25.58,0,0,1-9.58-14.31c-3.39-14.27-6.62-28.57-9.92-42.86C297.65,290.19,297.65,290,297.6,289.43Zm44.82,44.91a12,12,0,1,0-16.93.17A12.13,12.13,0,0,0,342.42,334.34Z" transform="translate(-50.1 -42.72)" style="fill:#8ec13f"/><path d="M574.65,163.74c1.54,2.3,2.92,4.27,4.14,5.89a28,28,0,0,0,3.55,4,11.92,11.92,0,0,0,3.59,2.3,12.4,12.4,0,0,0,4.24.82v9.14H567.33a23.59,23.59,0,0,1-4.94-5.15c-1.67-2.25-3.44-4.9-5.29-7.92l-10.16-16.6q-1.77-2.85-3.19-4.75c-.94-1.26-1.83-2.39-2.64-3.39-.77,0-1.44.07-2,.07h-3.42c-.57,0-1.19,0-1.87-.07v15q0,3.8-.13,7.28a50,50,0,0,1-.41,5.25l11.79-.4v10.7h-41.2v-9.14a41.52,41.52,0,0,0,4.17-.44,5.85,5.85,0,0,0,3.12-1.49,7.76,7.76,0,0,0,1.93-3.56,25,25,0,0,0,.68-6.57v-53.2q0-1.89,0-3.72c0-1.22.06-2.38.1-3.49s.1-2.11.17-3,.15-1.64.24-2.23l-10.44.4V88.73l39.51-.27A81.06,81.06,0,0,1,559.64,90a35.56,35.56,0,0,1,12.51,4.91,22.84,22.84,0,0,1,8,8.91,29.65,29.65,0,0,1,2.78,13.48,26.09,26.09,0,0,1-1.42,8.92,25,25,0,0,1-4.51,7.89,31.72,31.72,0,0,1-7.59,6.44,42,42,0,0,1-10.81,4.6v.14a16.37,16.37,0,0,1,5.15,3.45,29.8,29.8,0,0,1,4.41,5.22Zm-34.08-25.62a33.46,33.46,0,0,0,9.82-1.25A15.57,15.57,0,0,0,557,133a15.73,15.73,0,0,0,3.8-6.54,31.3,31.3,0,0,0,1.22-9.22,24.92,24.92,0,0,0-1-7.62,17,17,0,0,0-2.64-5.25,13.09,13.09,0,0,0-3.69-3.32,19.62,19.62,0,0,0-4.17-1.86,20,20,0,0,0-4-.82c-1.29-.11-2.41-.17-3.36-.17a21.18,21.18,0,0,0-4,.34,5.72,5.72,0,0,0-2.91,1.49,7.57,7.57,0,0,0-1.83,3.32,21.16,21.16,0,0,0-.65,5.83v28.46c1.09.14,2.19.25,3.32.34S539.39,138.12,540.57,138.12Z" transform="translate(-50.1 -42.72)" style="fill:#166db7"/><path d="M660.44,148.56l-45.61.81a49.74,49.74,0,0,0,1,10.54,24.19,24.19,0,0,0,3.36,8.33,16.26,16.26,0,0,0,6,5.49,19.16,19.16,0,0,0,9.15,2,22.94,22.94,0,0,0,4.67-.54,25.13,25.13,0,0,0,5.25-1.76,30.78,30.78,0,0,0,5.39-3.22,27.89,27.89,0,0,0,5.08-4.91l6.24,5.89a40.25,40.25,0,0,1-7.93,8.67,37.82,37.82,0,0,1-8.44,5.15,34.54,34.54,0,0,1-8.33,2.48,49.35,49.35,0,0,1-7.63.64,36.67,36.67,0,0,1-14-2.57,30.66,30.66,0,0,1-10.85-7.39,33.38,33.38,0,0,1-7-11.59,44.17,44.17,0,0,1-2.47-15.24,40,40,0,0,1,2.47-14,37.6,37.6,0,0,1,7-11.82,33.82,33.82,0,0,1,11-8.2,32.78,32.78,0,0,1,14.26-3,44.14,44.14,0,0,1,7.69.68,30.34,30.34,0,0,1,7.32,2.27,27.43,27.43,0,0,1,6.5,4.17,23.8,23.8,0,0,1,5.19,6.37,34.71,34.71,0,0,1,3.42,8.94A48.91,48.91,0,0,1,660.44,148.56ZM629.81,124a12.22,12.22,0,0,0-9.62,4.34,16.28,16.28,0,0,0-2.88,4.91,27.93,27.93,0,0,0-1.6,6.33h25.55a29.06,29.06,0,0,0-1-7.25,13.7,13.7,0,0,0-2.4-4.84,8.89,8.89,0,0,0-3.56-2.68A12,12,0,0,0,629.81,124Z" transform="translate(-50.1 -42.72)" style="fill:#166db7"/><path d="M680.09,163a12.94,12.94,0,0,0,2,6,17.14,17.14,0,0,0,4.61,4.82A22.66,22.66,0,0,0,693.4,177a28.37,28.37,0,0,0,8.23,1.15,14.91,14.91,0,0,0,3.42-.4,10.29,10.29,0,0,0,3.09-1.26,7.11,7.11,0,0,0,2.2-2.13,5.6,5.6,0,0,0,.85-3.12,5.38,5.38,0,0,0-1.05-3.35,10.22,10.22,0,0,0-3.09-2.58,35.1,35.1,0,0,0-5-2.34c-2-.76-4.33-1.67-7-2.71q-4.34-1.69-8.74-3.49a38.38,38.38,0,0,1-8-4.37,21.21,21.21,0,0,1-5.86-6.33,17.94,17.94,0,0,1-2.27-9.39,22.2,22.2,0,0,1,1.53-8,20.08,20.08,0,0,1,4.71-7.18,23.89,23.89,0,0,1,8.13-5.19,31.41,31.41,0,0,1,11.79-2,33.92,33.92,0,0,1,4.1.27,38.06,38.06,0,0,1,4.44.85,30.6,30.6,0,0,1,4.33,1.46A19,19,0,0,1,713,119h.13L713,115h10.57v24.53h-8.95a19.05,19.05,0,0,0-2.27-6.47,16.94,16.94,0,0,0-4.16-4.88,18.83,18.83,0,0,0-5.73-3.09,21.66,21.66,0,0,0-6.94-1.08,14.44,14.44,0,0,0-3.43.41,9,9,0,0,0-2.94,1.28,6.45,6.45,0,0,0-2,2.27,7.28,7.28,0,0,0-.74,3.43,6.2,6.2,0,0,0,1.29,4,10.56,10.56,0,0,0,3.59,2.74,37.89,37.89,0,0,0,5.38,2.14c2.06.65,4.28,1.39,6.68,2.2a89.62,89.62,0,0,1,9.76,4,33.66,33.66,0,0,1,7.72,5,22.23,22.23,0,0,1,5.12,6.58,18.81,18.81,0,0,1,1.86,8.57,19.31,19.31,0,0,1-7.79,16.12,24.74,24.74,0,0,1-8.07,4,33.48,33.48,0,0,1-9.41,1.32,44.36,44.36,0,0,1-6-.41,48.57,48.57,0,0,1-5.69-1.11,32.26,32.26,0,0,1-5-1.73,21,21,0,0,1-3.9-2.24h-.13l.47,4.2H671.68L671.14,163Z" transform="translate(-50.1 -42.72)" style="fill:#166db7"/><path d="M771.36,114.27a38.7,38.7,0,0,1,13.85,2.44,31.62,31.62,0,0,1,11.08,7.05A32.71,32.71,0,0,1,803.64,135a39.43,39.43,0,0,1,2.68,14.94,46.73,46.73,0,0,1-2.54,15.83,35.05,35.05,0,0,1-7.12,12.06,30.74,30.74,0,0,1-10.94,7.65,35.56,35.56,0,0,1-14,2.68,38.83,38.83,0,0,1-14-2.47,32.85,32.85,0,0,1-11.21-7,32.44,32.44,0,0,1-7.46-11.11,38.3,38.3,0,0,1-2.71-14.74A42.9,42.9,0,0,1,739.17,137a36.94,36.94,0,0,1,7.56-12.16,33.68,33.68,0,0,1,24.63-10.61Zm-.27,9.76a11,11,0,0,0-6.78,2.34,16.25,16.25,0,0,0-4.4,5.73,28.78,28.78,0,0,0-2.41,8,57.15,57.15,0,0,0-.71,9,66,66,0,0,0,.85,10.62,36.74,36.74,0,0,0,2.71,9.4,19.05,19.05,0,0,0,4.81,6.71,10.46,10.46,0,0,0,7.15,2.58,10.25,10.25,0,0,0,6.74-2.3,15.68,15.68,0,0,0,4.13-5.8,29.92,29.92,0,0,0,2.1-8,69.21,69.21,0,0,0,.58-8.88,78.42,78.42,0,0,0-.71-10.42,38.73,38.73,0,0,0-2.44-9.46,19.39,19.39,0,0,0-4.54-6.85A9.92,9.92,0,0,0,771.09,124Z" transform="translate(-50.1 -42.72)" style="fill:#166db7"/><path d="M887.83,163.6c0,.68,0,1.49,0,2.44s-.06,2-.1,3.05-.1,2.2-.17,3.35-.15,2.25-.24,3.29l9-.41v10.57H859.92v-9a9.82,9.82,0,0,0,4.57-.88,5.58,5.58,0,0,0,2.47-2.5,10.52,10.52,0,0,0,1-3.89c.14-1.51.2-3.19.2-5l-.06-19.76q-.07-9.13-2.78-13.4t-8.47-4.26a16.84,16.84,0,0,0-7,1.49,22,22,0,0,0-5.72,3.58v31.4c0,.67,0,1.49,0,2.43s0,2-.1,3-.1,2.2-.17,3.35-.15,2.24-.23,3.28l9-.41v10.57H816.28v-9a9.79,9.79,0,0,0,4.57-.88,5.62,5.62,0,0,0,2.48-2.51,10.72,10.72,0,0,0,1-3.89c.14-1.52.21-3.2.21-5V141.17c0-1.67,0-3.53.1-5.59s.21-4.12.44-6.2l-9.76.41V119.35a76.49,76.49,0,0,0,8.51-.41,52.91,52.91,0,0,0,6.3-1,23.48,23.48,0,0,0,4.2-1.34,9.32,9.32,0,0,0,2.34-1.41h6.84l.61,6.85h.2a35.69,35.69,0,0,1,4.64-3,44,44,0,0,1,5.36-2.48,41.81,41.81,0,0,1,5.35-1.66,21.28,21.28,0,0,1,4.71-.61,28.79,28.79,0,0,1,10.81,1.8,16.92,16.92,0,0,1,7.25,5.52,24.57,24.57,0,0,1,4.1,9.55A65.51,65.51,0,0,1,887.83,145Z" transform="translate(-50.1 -42.72)" style="fill:#166db7"/><path d="M906.13,132.57a13.08,13.08,0,0,1,2.27-7.46,19.57,19.57,0,0,1,6.23-5.79,33.38,33.38,0,0,1,9.32-3.73,47.74,47.74,0,0,1,11.45-1.32,35,35,0,0,1,10.88,1.56,20.14,20.14,0,0,1,8.06,4.81,21.09,21.09,0,0,1,5,8.27,36.48,36.48,0,0,1,1.73,11.92q0,3.53,0,6.21c0,1.78,0,3.5,0,5.14s0,3.38,0,5.19,0,3.88,0,6.23c0,.68,0,1.49,0,2.44s0,2-.07,3.05-.06,2.2-.13,3.35-.15,2.25-.24,3.29l8.95-.41v10.57H943.19c-.18-1.3-.3-2.4-.37-3.28s-.12-1.91-.17-3.09h-.13a28.06,28.06,0,0,1-9.9,6.68A30,30,0,0,1,922,188.13a21.56,21.56,0,0,1-8-1.39,16.23,16.23,0,0,1-5.93-3.9,17.36,17.36,0,0,1-3.69-5.86,20.27,20.27,0,0,1-1.29-7.35,19.42,19.42,0,0,1,1.56-7.93,21.18,21.18,0,0,1,4.3-6.3,27.87,27.87,0,0,1,6.47-4.81,45.87,45.87,0,0,1,8-3.39,63.58,63.58,0,0,1,9-2.1,84.62,84.62,0,0,1,9.35-.95V136.9a26.21,26.21,0,0,0-.47-5.11,11,11,0,0,0-1.63-4,7.93,7.93,0,0,0-3-2.65,10.1,10.1,0,0,0-4.74-.88,15.53,15.53,0,0,0-5.29,1.16,12.24,12.24,0,0,0-4.2,2.84,5.38,5.38,0,0,1,1.39,2.64,13.28,13.28,0,0,1,.31,2.51,9,9,0,0,1-.55,3,8.12,8.12,0,0,1-1.69,2.78,9.14,9.14,0,0,1-2.91,2.06,10,10,0,0,1-4.21.81,8.94,8.94,0,0,1-3.65-.84,8.22,8.22,0,0,1-2.71-2,8.62,8.62,0,0,1-1.66-3A11.14,11.14,0,0,1,906.13,132.57Zm35.57,21.34a40.71,40.71,0,0,0-7.38,1.43,22.22,22.22,0,0,0-6,2.69,13.06,13.06,0,0,0-4,4,9.74,9.74,0,0,0-1.45,5.3,8,8,0,0,0,.74,3.33,6.9,6.9,0,0,0,1.73,2.25,6.58,6.58,0,0,0,2.44,1.29,10.18,10.18,0,0,0,2.88.41,13.47,13.47,0,0,0,6-1.36,16.52,16.52,0,0,0,4.95-3.74Z" transform="translate(-50.1 -42.72)" style="fill:#166db7"/><path d="M1048.9,163.6c0,.68,0,1.49,0,2.44s0,2-.1,3.05-.1,2.2-.17,3.35-.15,2.25-.23,3.29l9-.41v10.57H1021v-9a9.87,9.87,0,0,0,4.58-.88,5.63,5.63,0,0,0,2.47-2.5,10.72,10.72,0,0,0,1-3.89q.21-2.27.21-5l-.07-19.76q-.08-9.13-2.78-13.4t-8.47-4.26a16.8,16.8,0,0,0-6.94,1.49,21.92,21.92,0,0,0-5.73,3.58v31.4c0,.67,0,1.49,0,2.43s-.06,2-.1,3-.11,2.2-.17,3.35-.15,2.24-.24,3.28l9-.41v10.57H977.34v-9a9.84,9.84,0,0,0,4.58-.88,5.65,5.65,0,0,0,2.47-2.51,10.93,10.93,0,0,0,1-3.89c.13-1.52.2-3.2.2-5V141.17c0-1.67,0-3.53.1-5.59s.22-4.12.44-6.2l-9.75.41V119.35a76.3,76.3,0,0,0,8.5-.41,52.91,52.91,0,0,0,6.3-1,23.48,23.48,0,0,0,4.2-1.34,9.32,9.32,0,0,0,2.34-1.41h6.84l.61,6.85h.21a34.38,34.38,0,0,1,4.64-3,43.84,43.84,0,0,1,5.35-2.48,41.81,41.81,0,0,1,5.35-1.66,21.28,21.28,0,0,1,4.71-.61,28.79,28.79,0,0,1,10.81,1.8,16.8,16.8,0,0,1,7.25,5.52,24.57,24.57,0,0,1,4.1,9.55A64.8,64.8,0,0,1,1048.9,145Z" transform="translate(-50.1 -42.72)" style="fill:#166db7"/><path d="M1061.43,116.51a14.15,14.15,0,0,0,6.71-1.8,23.36,23.36,0,0,0,5.59-4.3,27.82,27.82,0,0,0,4.2-5.62,28.42,28.42,0,0,0,2.54-5.7h10.23l-.06,17.42h17.68v10.7l-17.68.34q-.08,9.84-.11,16.32t-.06,10.38c0,2.61,0,4.46,0,5.57v1.93a37.27,37.27,0,0,0,.31,4.85A14.21,14.21,0,0,0,1092,171a7.87,7.87,0,0,0,2.57,3.12,7.25,7.25,0,0,0,4.31,1.19,11.54,11.54,0,0,0,2.2-.28,11.86,11.86,0,0,0,3-1.12,18.26,18.26,0,0,0,3.56-2.53,25.74,25.74,0,0,0,3.86-4.48l6.71,6.24a39.63,39.63,0,0,1-7.59,8.6,29.66,29.66,0,0,1-7.25,4.47,22.4,22.4,0,0,1-6.3,1.7c-1.9.18-3.48.27-4.75.27a33.09,33.09,0,0,1-4.77-.37,20.17,20.17,0,0,1-4.88-1.39,16.87,16.87,0,0,1-4.54-2.88,18,18,0,0,1-3.8-4.85,27,27,0,0,1-2.61-7.21,46.43,46.43,0,0,1-.94-10l.2-33.47-9.49.14Z" transform="translate(-50.1 -42.72)" style="fill:#166db7"/><path d="M640.07,376.8h-5.53a49.21,49.21,0,0,0-13,1.77q-6.48,1.79-13.68,3.88t-15.62,3.88a91.8,91.8,0,0,1-18.83,1.77q-18.5,0-32.89-6.26a69.44,69.44,0,0,1-24.26-17.17,74.33,74.33,0,0,1-15-25.64,95.41,95.41,0,0,1-5.15-31.68,101,101,0,0,1,2.16-20.66,92.12,92.12,0,0,1,6.53-19.82,86.47,86.47,0,0,1,10.91-17.67A71.54,71.54,0,0,1,531,234.91a73,73,0,0,1,19.77-9.53A80.79,80.79,0,0,1,574.94,222a79.36,79.36,0,0,1,10,.72,101.36,101.36,0,0,1,11.41,2.16,109.67,109.67,0,0,1,11.41,3.49,57.57,57.57,0,0,1,10.13,4.82h.22l-.77-9.64h17.5v53.06H620a54.42,54.42,0,0,0-5.32-16.67A40.2,40.2,0,0,0,605.4,248a38,38,0,0,0-12.51-7.15,46.21,46.21,0,0,0-15-2.38q-11.85,0-20.6,5.43a45.26,45.26,0,0,0-14.45,14.4,67,67,0,0,0-8.48,20.55,102.56,102.56,0,0,0-2.77,23.87,113,113,0,0,0,3,27.08,66.91,66.91,0,0,0,9,21.32,43.26,43.26,0,0,0,14.79,14,40.79,40.79,0,0,0,20.43,5c2.22,0,4.73-.12,7.53-.38s5.69-.63,8.64-1.11a77.3,77.3,0,0,0,8.59-1.89,43.52,43.52,0,0,0,7.36-2.71v-21q0-3.11.06-6.1c0-2,.09-3.89.16-5.7s.17-3.45.28-4.93.24-2.69.39-3.65l-17.06.66v-17.5h60.26v14.95a39.82,39.82,0,0,0-6.7.89,8.77,8.77,0,0,0-4.66,2.71,13.67,13.67,0,0,0-2.76,5.87,44.38,44.38,0,0,0-.95,10.25Z" transform="translate(-50.1 -42.72)" style="fill:#8ec13f"/><path d="M774,323.41l-74.55,1.33A81.67,81.67,0,0,0,701.16,342a39.75,39.75,0,0,0,5.48,13.62,26.84,26.84,0,0,0,9.86,9q6.09,3.27,15,3.27a37.57,37.57,0,0,0,7.65-.89,41.25,41.25,0,0,0,8.58-2.88,49.55,49.55,0,0,0,8.81-5.26,45.73,45.73,0,0,0,8.31-8L775,360.41a66,66,0,0,1-13,14.17A61.66,61.66,0,0,1,748.24,383a56.15,56.15,0,0,1-13.63,4,79.68,79.68,0,0,1-12.46,1.06,59.94,59.94,0,0,1-22.82-4.21,50.14,50.14,0,0,1-17.72-12.07,54.3,54.3,0,0,1-11.46-18.95,72.17,72.17,0,0,1-4-24.92,65.18,65.18,0,0,1,4-22.87,61,61,0,0,1,11.46-19.33,55.17,55.17,0,0,1,17.89-13.4,53.6,53.6,0,0,1,23.32-5,72,72,0,0,1,12.57,1.11,49.73,49.73,0,0,1,12,3.71A45.5,45.5,0,0,1,758,279a39,39,0,0,1,8.48,10.42A56.33,56.33,0,0,1,772.05,304,79,79,0,0,1,774,323.41Zm-50.07-40.1A20.3,20.3,0,0,0,715,285.2a20.76,20.76,0,0,0-6.82,5.2,27.29,27.29,0,0,0-4.7,8,45.8,45.8,0,0,0-2.61,10.36h41.76A47.78,47.78,0,0,0,741,296.94a22.41,22.41,0,0,0-3.93-7.92,14.4,14.4,0,0,0-5.82-4.38A19.61,19.61,0,0,0,723.92,283.31Z" transform="translate(-50.1 -42.72)" style="fill:#8ec13f"/><path d="M845.32,267.36a63.08,63.08,0,0,1,22.65,4,51.65,51.65,0,0,1,18.11,11.52,53.6,53.6,0,0,1,12,18.33,64.51,64.51,0,0,1,4.38,24.43,76.12,76.12,0,0,1-4.16,25.86,57.34,57.34,0,0,1-11.63,19.72,50.54,50.54,0,0,1-17.89,12.51A58.22,58.22,0,0,1,846,388.1a63.66,63.66,0,0,1-22.88-4,53.85,53.85,0,0,1-18.33-11.52,53.09,53.09,0,0,1-12.18-18.17,62.27,62.27,0,0,1-4.43-24.09,70,70,0,0,1,4.54-25.7,60.61,60.61,0,0,1,12.35-19.88,55.09,55.09,0,0,1,18.22-12.79A54.5,54.5,0,0,1,845.32,267.36Zm-.44,15.95a18,18,0,0,0-11.08,3.83,26.91,26.91,0,0,0-7.2,9.37,47.65,47.65,0,0,0-3.93,13,92.33,92.33,0,0,0-1.16,14.7,109.24,109.24,0,0,0,1.38,17.35A60.81,60.81,0,0,0,827.32,357a31.31,31.31,0,0,0,7.87,11,17.12,17.12,0,0,0,11.68,4.22,16.73,16.73,0,0,0,11-3.77,25.35,25.35,0,0,0,6.76-9.48,49.08,49.08,0,0,0,3.43-13,111.73,111.73,0,0,0,.95-14.53,126.18,126.18,0,0,0-1.17-17,62.3,62.3,0,0,0-4-15.47,31.47,31.47,0,0,0-7.42-11.2A16.23,16.23,0,0,0,844.88,283.31Z" transform="translate(-50.1 -42.72)" style="fill:#8ec13f"/><path d="M915.1,225.61l66.13-.23a110.58,110.58,0,0,1,27.19,3.11,86.42,86.42,0,0,1,21.88,8.64A72,72,0,0,1,1047,250.2a75.25,75.25,0,0,1,18.67,34.39,80.93,80.93,0,0,1,2.27,18.88,87,87,0,0,1-2.11,18.78,79.92,79.92,0,0,1-6.59,18.61,77.64,77.64,0,0,1-11.46,16.94,71.72,71.72,0,0,1-16.73,13.85,86.28,86.28,0,0,1-22.43,9.36,109.14,109.14,0,0,1-28.52,3.43h-65V369.49a57.67,57.67,0,0,0,6.82-.78,10,10,0,0,0,5.09-2.43,12.23,12.23,0,0,0,3.16-5.76,41.24,41.24,0,0,0,1.11-10.75V262.82c0-2.06,0-4.1.05-6.09s.09-3.89.17-5.71.16-3.44.27-4.92.24-2.7.39-3.66l-17.06.67Zm65.69,14.95a38.49,38.49,0,0,0-7.37.44,9.63,9.63,0,0,0-5.2,2.55,12.62,12.62,0,0,0-3.11,5.87,41.36,41.36,0,0,0-1.05,10.41v87.4c0,2.07,0,4.09,0,6.09s-.1,3.89-.17,5.7-.17,3.46-.28,4.93-.24,2.7-.38,3.66c1.1-.08,2.6-.11,4.48-.11s3.88,0,6,.11,4.17.13,6.21.16,3.71.06,5,.06q12.39,0,21.32-5a43.67,43.67,0,0,0,14.67-13.41,59.38,59.38,0,0,0,8.53-19.1,87.76,87.76,0,0,0,2.77-22q0-17.4-3.6-30t-10.3-20.88A42.1,42.1,0,0,0,1002.05,245,57.48,57.48,0,0,0,980.79,240.56Z" transform="translate(-50.1 -42.72)" style="fill:#8ec13f"/><path d="M1086.35,297.27a21.37,21.37,0,0,1,3.71-12.18,32.06,32.06,0,0,1,10.19-9.48,54.22,54.22,0,0,1,15.23-6.08,77.37,77.37,0,0,1,18.72-2.17,57.54,57.54,0,0,1,17.78,2.55,32.87,32.87,0,0,1,13.17,7.87,34.29,34.29,0,0,1,8.2,13.51,59.78,59.78,0,0,1,2.83,19.49c0,3.85,0,7.22-.06,10.14s0,5.72,0,8.42,0,5.52-.06,8.47,0,6.35,0,10.19q0,1.67-.06,4c0,1.55-.07,3.21-.11,5s-.11,3.6-.22,5.48-.24,3.68-.39,5.38l14.62-.67v17.28h-42.87c-.29-2.14-.49-3.93-.61-5.37s-.2-3.12-.27-5h-.22a45.85,45.85,0,0,1-16.17,10.91,49.28,49.28,0,0,1-17.39,3.16,35.43,35.43,0,0,1-13.07-2.27,26.79,26.79,0,0,1-9.7-6.37,28.34,28.34,0,0,1-6-9.58,33.14,33.14,0,0,1-2.11-12,31.69,31.69,0,0,1,2.55-13,34.34,34.34,0,0,1,7-10.3,45.41,45.41,0,0,1,10.58-7.87,73.18,73.18,0,0,1,13.13-5.53,103.25,103.25,0,0,1,14.67-3.44,134.23,134.23,0,0,1,15.29-1.55V304.36a41.83,41.83,0,0,0-.78-8.36,17.83,17.83,0,0,0-2.66-6.59,12.74,12.74,0,0,0-5-4.32,16.21,16.21,0,0,0-7.75-1.44,25.45,25.45,0,0,0-8.64,1.88,20.27,20.27,0,0,0-6.87,4.65,8.8,8.8,0,0,1,2.27,4.32,21.32,21.32,0,0,1,.5,4.1,14.64,14.64,0,0,1-.89,4.93,13.17,13.17,0,0,1-2.77,4.54,14.71,14.71,0,0,1-4.76,3.38,16.38,16.38,0,0,1-6.87,1.33,14.77,14.77,0,0,1-6-1.39,13.27,13.27,0,0,1-4.43-3.32,14.22,14.22,0,0,1-2.71-4.82A18.37,18.37,0,0,1,1086.35,297.27Zm58.15,34.89a67.68,67.68,0,0,0-12.08,2.34,36.64,36.64,0,0,0-9.8,4.39,21.31,21.31,0,0,0-6.53,6.5,15.89,15.89,0,0,0-2.38,8.66,13.09,13.09,0,0,0,1.21,5.45,11.37,11.37,0,0,0,2.83,3.67,11,11,0,0,0,4,2.11,16.86,16.86,0,0,0,4.71.67,22.15,22.15,0,0,0,9.86-2.23,26.93,26.93,0,0,0,8.09-6.11Z" transform="translate(-50.1 -42.72)" style="fill:#8ec13f"/><path d="M1196.45,271a23.06,23.06,0,0,0,11-2.94,38.3,38.3,0,0,0,9.14-7,45.51,45.51,0,0,0,6.87-9.19,47.4,47.4,0,0,0,4.15-9.31h16.73l-.11,28.47h28.91v17.5l-28.91.55q-.12,16.1-.17,26.68t-.11,17q-.06,6.39-.06,9.1V345a63.48,63.48,0,0,0,.5,7.93,23.2,23.2,0,0,0,2,7.1,12.76,12.76,0,0,0,4.21,5.1,11.74,11.74,0,0,0,7,1.94,18.92,18.92,0,0,0,3.6-.44,19.33,19.33,0,0,0,4.87-1.85,29.44,29.44,0,0,0,5.82-4.13,41.72,41.72,0,0,0,6.31-7.31l11,10.19a65.14,65.14,0,0,1-12.41,14.07,49.08,49.08,0,0,1-11.85,7.31,36.73,36.73,0,0,1-10.3,2.77q-4.65.43-7.76.44a53.08,53.08,0,0,1-7.8-.61,33.13,33.13,0,0,1-8-2.27,27.78,27.78,0,0,1-7.42-4.71,29.38,29.38,0,0,1-6.2-7.92,43.53,43.53,0,0,1-4.27-11.79,75.8,75.8,0,0,1-1.55-16.34l.33-54.72-15.5.22Z" transform="translate(-50.1 -42.72)" style="fill:#8ec13f"/><path d="M1298.13,297.27a21.37,21.37,0,0,1,3.71-12.18,32.06,32.06,0,0,1,10.19-9.48,54.22,54.22,0,0,1,15.23-6.08,77.37,77.37,0,0,1,18.72-2.17,57.5,57.5,0,0,1,17.78,2.55,33,33,0,0,1,13.18,7.87,34.39,34.39,0,0,1,8.19,13.51,59.78,59.78,0,0,1,2.83,19.49c0,3.85,0,7.22,0,10.14s-.06,5.72-.06,8.42,0,5.52-.06,8.47,0,6.35,0,10.19q0,1.67-.06,4c0,1.55-.07,3.21-.11,5s-.11,3.6-.22,5.48-.24,3.68-.39,5.38l14.62-.67v17.28h-42.86c-.3-2.14-.5-3.93-.61-5.37s-.21-3.12-.28-5h-.22a45.85,45.85,0,0,1-16.17,10.91,49.28,49.28,0,0,1-17.39,3.16,35.46,35.46,0,0,1-13.07-2.27,26.75,26.75,0,0,1-9.69-6.37,28.21,28.21,0,0,1-6-9.58,33.14,33.14,0,0,1-2.11-12,31.69,31.69,0,0,1,2.55-13,34.53,34.53,0,0,1,7-10.3,45.41,45.41,0,0,1,10.58-7.87,73.18,73.18,0,0,1,13.13-5.53,103.06,103.06,0,0,1,14.68-3.44,134.06,134.06,0,0,1,15.28-1.55V304.36a42.61,42.61,0,0,0-.77-8.36,18,18,0,0,0-2.66-6.59,12.84,12.84,0,0,0-5-4.32,16.21,16.21,0,0,0-7.75-1.44,25.45,25.45,0,0,0-8.64,1.88,20.27,20.27,0,0,0-6.87,4.65,8.9,8.9,0,0,1,2.28,4.32,22,22,0,0,1,.49,4.1,14.88,14.88,0,0,1-.88,4.93,13.49,13.49,0,0,1-2.77,4.54,14.86,14.86,0,0,1-4.77,3.38,16.36,16.36,0,0,1-6.86,1.33,14.82,14.82,0,0,1-6-1.39,13.27,13.27,0,0,1-4.43-3.32,14.39,14.39,0,0,1-2.71-4.82A18.37,18.37,0,0,1,1298.13,297.27Zm58.15,34.89a67.56,67.56,0,0,0-12.07,2.34,36.71,36.71,0,0,0-9.81,4.39,21.53,21.53,0,0,0-6.53,6.5,15.89,15.89,0,0,0-2.38,8.66,13.08,13.08,0,0,0,1.22,5.45,11.21,11.21,0,0,0,2.82,3.67,11,11,0,0,0,4,2.11,16.76,16.76,0,0,0,4.71.67,22.11,22.11,0,0,0,9.85-2.23,26.81,26.81,0,0,0,8.09-6.11Z" transform="translate(-50.1 -42.72)" style="fill:#8ec13f"/></svg>